PathFileType	4	(X/Y/Z)	C:/Users/beibeiliu/ov580/test_trc/User3\sequence.14_training_dense_left.trc
DataRate	CameraRate	NumFrames	NumMarkers	Units	OrigDataRate	OrigDataStartFrame	OrigNumFrames
120	120	13	19	mm	120	124	246
Frame#	Time	ThumbCMC			ThumbMCP			ThumbIP			ThumbTip			IndexMCP			IndexPIP			IndexTip			MiddleMCP			MiddlePIP			MiddleTip			RingMCP			RingPIP			RingTip			PinkyMCP			PinkyPIP			PinkyTip			BackHand1			BackHand2			BackHand3	
		X0	Y0	Z0	X1	Y1	Z1	X2	Y2	Z2	X3	Y3	Z3	X4	Y4	Z4	X5	Y5	Z5	X6	Y6	Z6	X7	Y7	Z7	X8	Y8	Z8	X9	Y9	Z9	X10	Y10	Z10	X11	Y11	Z11	X12	Y12	Z12	X13	Y13	Z13	X14	Y14	Z14	X15	Y15	Z15	X16	Y16	Z16	X17	Y17	Z17	X18	Y18	Z18	
123	1.025	-191.473	4.2945	12.5605	-164.061	13.5421	5.20931	-139.295	22.6281	-2.79996	-120.547	32.0979	-4.75487	-157.132	-29.5513	-47.4282	-133.503	-35.3723	-65.9437	-107.056	-37.7299	-74.9518	-164.165	-58.8646	-50.2565	-142.67	-70.2563	-67.2063	-113.495	-76.3654	-80.2004	-170.299	-76.6137	-32.9115	-149.367	-93.7984	-46.7176	-123.208	-104.921	-52.6309	-177.311	-93.3017	-9.33	-158.066	-109.22	-14.75	-140.642	-123.943	-13.633	-211.633	-59.6218	-6.37667	-230.07	-49.0553	9.21758	-214.09	-24.6186	-5.1409	
124	1.03333	-194.353	3.80517	12.3712	-168.357	13.7489	6.69539	-143.817	30.7656	-3.20895	-126.573	38.5396	-5.76465	-155.484	-29.7969	-44.9397	-133.189	-31.6845	-61.059	-106.691	-32.1085	-71.3626	-159.278	-54.0399	-46.6274	-134.712	-64.7422	-64.1408	-106.088	-68.4405	-76.0904	-163.295	-76.4361	-28.0964	-142.793	-86.8758	-41.6419	-112.157	-96.0052	-48.0549	-168.599	-91.657	-2.45039	-146.688	-104.693	-7.91335	-125.659	-116.402	-7.99933	-204.125	-58.1003	-7.92775	-229.528	-52.9352	12.8544	-212.053	-24.5566	-3.59619	
125	1.04167	-198.23	6.27785	11.7289	-174.743	20.7909	8.14992	-151.436	36.085	-1.13518	-134.05	46.3923	-6.71398	-154.886	-23.3904	-42.5172	-131.642	-21.6016	-59.1888	-104.586	-23.0344	-68.8698	-151.74	-51.7958	-45.62	-128.625	-58.331	-59.4247	-98.2785	-62.379	-71.1524	-155.971	-73.3846	-24.9612	-130.424	-80.6752	-39.0603	-105.307	-91.154	-41.6749	-160.97	-85.923	1.25805	-139.669	-97.8702	-3.79357	-118.987	-108.353	-2.04428	-200.265	-60.5682	-4.30538	-223.823	-54.6248	11.6165	-211.016	-25.0454	-4.75284	
126	1.05	-200.655	7.85837	11.9514	-179.015	20.951	7.54455	-155.18	41.825	-4.58799	-139.831	53.1894	-8.49534	-150.382	-19.407	-44.7177	-129.091	-15.8859	-57.5567	-100.553	-16.9573	-66.4552	-151.722	-48.7313	-39.0815	-127.928	-48.3371	-56.0122	-97.2617	-50.5909	-67.8509	-147.626	-70.1752	-24.3234	-126.565	-75.1831	-32.8357	-101.565	-81.1006	-37.7524	-155.949	-83.1712	4.20349	-136.365	-88.8356	-0.756612	-111.653	-98.5875	1.69262	-196.409	-59.2142	-5.98626	-222.887	-54.1981	16.0965	-209.579	-28.3153	-6.90817	
127	1.05833	-205.102	8.59906	10.2974	-184.337	28.6442	5.68675	-162.137	43.1611	-4.56537	-146.248	62.0314	-12.9277	-150.779	-17.409	-43.2377	-130.321	-10.238	-56.5311	-101.794	-8.15769	-66.3309	-146.824	-41.3337	-42.6522	-122.369	-43.8538	-55.325	-91.5498	-44.9303	-66.2913	-145.354	-62.5604	-23.1641	-123.616	-69.0717	-30.0038	-93.8443	-70.2283	-38.0682	-150.773	-77.8612	5.19743	-130.318	-85.1862	4.54772	-105.192	-88.2262	3.17094	-197.87	-55.4417	-2.63882	-219.29	-55.5816	11.3858	-209.013	-28.6337	-7.3586	
128	1.06667	-209.224	7.95257	9.47549	-189.633	29.148	3.31407	-168.914	47.5389	-7.96482	-157.556	64.1934	-12.5343	-154.972	-14.5349	-42.0177	-130.797	-6.28589	-58.1065	-109.757	2.57236	-65.397	-145.303	-40.1755	-41.4649	-122.244	-38.2125	-56.3193	-91.2077	-38.2753	-63.7331	-141.638	-58.849	-22.8409	-121.933	-61.6087	-29.6254	-90.7841	-61.428	-35.7702	-148.827	-69.7502	4.42845	-124.498	-77.4023	4.8212	-98.4989	-76.6797	3.10714	-193.362	-56.0544	-3.05981	-220.013	-57.336	13.7433	-213.602	-26.3648	-6.8742	
129	1.075	-212.606	8.22467	7.11512	-193.643	29.1245	0.861357	-175.106	50.9608	-12.6421	-165.883	64.7787	-15.7299	-159.477	-8.6215	-43.8537	-132.928	0.148896	-61.3233	-113.116	8.27921	-67.9357	-147.904	-39.1323	-40.3172	-122.056	-33.9752	-57.3152	-92.1072	-31.2376	-66.3567	-141.295	-54.8239	-22.6695	-118.798	-57.3637	-30.9831	-90.6438	-54.7349	-35.4279	-145.409	-68.1403	4.70744	-122.209	-69.3909	2.26946	-96.8947	-70.1884	1.42115	-193.535	-55.6678	-3.87908	-218.615	-56.3728	12.0314	-212.398	-25.7625	-9.19016	
130	1.08333	-215.272	6.32772	2.90731	-199.391	30.8124	-5.76373	-184.103	52.805	-15.3576	-176.054	70.3825	-21.4987	-163.288	-7.23635	-46.8912	-138.55	0.508506	-63.9965	-114.172	10.9354	-71.7604	-150.057	-34.3309	-44.5546	-125.819	-31.9186	-59.0987	-96.2223	-25.0692	-68.7873	-145.268	-52.7254	-22.0219	-117.206	-49.4087	-35.7605	-89.0767	-47.2232	-39.2401	-141.66	-61.8692	2.2036	-121.354	-62.361	1.83752	-96.6896	-63.6408	3.05498	-189.997	-57.9493	-6.45864	-215.179	-58.3072	13.8542	-216.241	-29.328	-8.80103	
131	1.09167	-220.335	2.20615	2.39242	-205.96	27.6807	-7.67628	-195.482	51.1518	-18.5785	-184.473	69.3133	-25.8357	-164.246	-8.31292	-51.3239	-146.436	1.39649	-66.2354	-122.226	10.8214	-74.6293	-150.397	-34.9374	-47.2391	-126.967	-29.6195	-61.7397	-95.8121	-22.4014	-72.1485	-142.704	-49.2419	-23.757	-117.304	-49.4737	-34.4982	-91.7674	-44.9331	-38.2827	-141.974	-56.473	0.923184	-119.13	-58.1859	3.36188	-93.2105	-59.8135	2.8433	-190.057	-58.8451	-2.49789	-215.249	-60.1119	12.3401	-216.897	-33.9795	-8.54338	
132	1.1	-223.592	-0.0842943	-2.61216	-213.705	28.4852	-13.2712	-202.385	50.1807	-26.3699	-195.4	67.2506	-31.4481	-167.198	-10.8058	-53.0975	-147.69	-0.00109736	-70.4432	-129.375	13.5649	-80.9794	-151.128	-34.4026	-49.7166	-127.77	-29.9307	-64.1534	-98.3013	-19.7715	-78.0463	-143.368	-45.5036	-28.9635	-117.012	-46.3045	-36.9911	-94.0021	-39.7791	-45.0237	-141.068	-53.5318	-0.312481	-116.622	-53.3557	-0.0861782	-92.7655	-52.5574	0.666615	-187.701	-55.6995	-5.04418	-215.907	-61.3949	15.3698	-215.152	-35.4445	-14.8844	
133	1.10833	-228.184	0.517196	-6.38526	-220.97	24.9802	-14.7526	-208.382	47.5782	-28.1614	-201.338	68.935	-39.2306	-173.648	-11.0344	-56.4836	-153.463	-0.12681	-73.9249	-134.042	14.9028	-87.4295	-155.216	-35.2444	-50.9955	-134.869	-27.2132	-70.209	-106.361	-21.0535	-82.8278	-146.014	-48.9992	-25.7892	-123.013	-44.6584	-40.6331	-94.8304	-38.4149	-50.3141	-141.044	-54.11	0.894564	-118.959	-53.8397	-0.371227	-97.4605	-49.8775	-4.40085	-192.128	-58.3215	-4.21555	-213.592	-63.1889	14.9006	-217.774	-39.5749	-12.2332	
134	1.11667	-230.792	-2.44257	-3.8287	-219.338	23.4964	-18.6148	-211.28	46.3431	-32.2678	-205.495	65.778	-40.7264	-176.847	-13.3561	-59.2563	-160.22	2.99259	-81.9363	-140.644	11.5459	-91.3719	-160.202	-34.5655	-55.409	-140.271	-31.2147	-72.3	-112.816	-18.7856	-92.5117	-147.632	-48.8054	-30.1023	-125.007	-45.8263	-46.0023	-96.4399	-41.505	-54.8268	-138.963	-54.6856	-3.87953	-118.259	-51.4031	-9.05956	-96.726	-49.0845	-12.0705	-187.531	-56.5083	-6.69306	-211.245	-62.6983	10.2479	-218.727	-39.5124	-15.8062	
135	1.125	-233.876	-4.44007	-3.7055	-225.585	21.8811	-18.0271	-214.221	45.7639	-35.1265	-210.826	65.5211	-44.3632	-177.366	-14.2994	-64.6653	-160.646	-3.7539	-84.1884	-142.937	7.59293	-98.0752	-162.889	-37.3582	-57.0624	-145.141	-32.7362	-76.8776	-113.727	-27.0332	-96.7466	-149.57	-47.3389	-37.3359	-124.722	-50.3007	-49.1518	-102.01	-44.8393	-61.6615	-144.855	-52.6742	-6.18015	-118.673	-54.1393	-10.9661	-97.8987	-53.9517	-14.3862	-191.372	-57.3272	-7.74567	-207.204	-64.8928	13.6687	-219.794	-40.1828	-14.504	
